<svg xmlns="http://www.w3.org/2000/svg" xmlns:xlink="http://www.w3.org/1999/xlink" viewBox="0 0 274.3 117.5"><defs><linearGradient id="a" x1="4.18" y1="106.49" x2="34.92" y2="106.49" gradientUnits="userSpaceOnUse"><stop offset="0" stop-color="#014d41"/><stop offset="1" stop-color="#25baa2"/></linearGradient><linearGradient id="b" x1="2.62" y1="119.15" x2="35.55" y2="119.15" gradientUnits="userSpaceOnUse"><stop offset="0" stop-color="#25baa2"/><stop offset="1" stop-color="#014d41"/></linearGradient><linearGradient id="c" x1="0" y1="131.55" x2="33.78" y2="131.55" xlink:href="#a"/><linearGradient id="d" x1="78.92" y1="105.18" x2="100.31" y2="105.18" xlink:href="#a"/><linearGradient id="e" x1="91.47" y1="119.32" x2="113.69" y2="119.32" xlink:href="#a"/><linearGradient id="f" x1="93.02" y1="65.09" x2="101.85" y2="65.09" xlink:href="#a"/><clipPath id="g" transform="translate(1.54 -60)"><rect x="1.71" y="146.12" width="98.2" height="33.06" style="fill:none"/></clipPath><clipPath id="h" transform="translate(1.54 -60)"><rect x="63.75" y="80.69" width="33.87" height="25.8" style="fill:none"/></clipPath><clipPath id="i" transform="translate(1.54 -60)"><rect x="14.83" y="112.22" width="89.59" height="68.01" style="fill:none"/></clipPath><clipPath id="j" transform="translate(1.54 -60)"><rect x="2.14" y="60" width="97.33" height="33.17" style="fill:none"/></clipPath></defs><title>SciTechnol-logo</title><path d="M34.92,106.2s-8.83-11-26.22-4.28c0,0-13.58,7.28,6.32,11.3,0,0-3.07-2.87,1.21-4.56a15.39,15.39,0,0,1,7.62.71,8.37,8.37,0,0,1,3.08,1.85Z" transform="translate(1.54 -60)" style="fill:url(#a)"/><path d="M4.73,105.39s-2.14,4.93,7.66,7.2a48.8,48.8,0,0,0,7.14,1.33S33,115.45,35,122.26c0,0,2,6.43-1.95,10.64,0,0,3.44-5.75-11-8.22,0,0-14.28-1.12-17.78-6.79C4.34,117.89.23,112.78,4.73,105.39Z" transform="translate(1.54 -60)" style="fill:url(#b)"/><path d="M23,124.6s4.85,3.25-1.73,4.89c0,0-8.57.87-11.38-3.16l-1-1.43L0,130.44S4.58,137,12.38,138a33.67,33.67,0,0,0,14.29-.65s15.45-6.49.78-11.62Z" transform="translate(1.54 -60)" style="fill:url(#c)"/><path d="M59.71,139.24h-14l-5-5V112.32l5-5h14l5,5v1.94H48v18H64.73v1.94Z" transform="translate(1.54 -60)" style="fill:#014d41"/><path d="M69.19,106.86V99.92h6.71v6.94H69.19Zm6.71,32.38H69.19V109.81h6.71v29.43Z" transform="translate(1.54 -60)" style="fill:#014d41"/><path d="M133.24,139.24H118.31l-5-5V112.32l5-5h14.93l5,5v9.54l-5,5H120.57v5.71h17.69v1.63Zm-2.26-25H120.57v6H131v-6Z" transform="translate(1.54 -60)" style="fill:#014d41"/><path d="M163.23,139.24h-14l-5-5V112.32l5-5h14l5,5v1.94H151.5v18h16.75v1.94Z" transform="translate(1.54 -60)" style="fill:#014d41"/><path d="M197.29,139.24H190v-25h-9.79v25H173L173,98.84l5.9-2.2,1.38-.06v14.37l3.64-3.64h8.41l5,5v26.91Z" transform="translate(1.54 -60)" style="fill:#014d41"/><path d="M227.91,139.24h-7.28v-25h-9.79v25h-7.28V107.31h1.63l5.65,3.64,3.64-3.64h8.41l5,5v26.91Z" transform="translate(1.54 -60)" style="fill:#014d41"/><path d="M254.13,139.24H239.2l-5-5V112.32l5-5h14.93l5,5v21.89Zm-2.26-25H241.46v18h10.42v-18Z" transform="translate(1.54 -60)" style="fill:#014d41"/><path d="M272.76,139.24h-7.34V99l5.9-2.32,1.44-.13v42.66Z" transform="translate(1.54 -60)" style="fill:#014d41"/><path d="M78.92,110.93a12.92,12.92,0,0,1,2-7.37,8.54,8.54,0,0,1,5.38-4,6.4,6.4,0,0,1,1.49-.18c2.82,0,5.64,0,8.46,0l4.09,0c-0.54.4-3.52,1.19-4,1.57a12.44,12.44,0,0,0-4.73,8.28,1.19,1.19,0,0,0,0,.14,3.28,3.28,0,0,1-.1,1.36,1.85,1.85,0,0,1-1.18.15H78.92Z" transform="translate(1.54 -60)" style="fill-rule:evenodd;fill:url(#d)"/><path d="M113.68,99.43a13,13,0,0,1-1.67,6.93,8.47,8.47,0,0,1-5.72,4.38,17.51,17.51,0,0,1-3.18.17c-0.89,0-1.78,0-2.74,0,0,1.17,0,2.26,0,3.36,0,4.92.07,9.84-.07,14.75-0.12,4.2-2.21,8.09-5.82,9.51a20.25,20.25,0,0,1-3,.7v-0.88c0-9.31,0-18.62,0-27.93a12.55,12.55,0,0,1,2-6.81,8.79,8.79,0,0,1,5.35-4,6.07,6.07,0,0,1,1.5-.19q6.5,0,13,0Z" transform="translate(1.54 -60)" style="fill-rule:evenodd;fill:url(#e)"/><rect x="93.02" y="50.94" width="8.84" height="28.3" style="fill:url(#f)"/><g style="clip-path:url(#g)"><g style="clip-path:url(#h)"><path d="M43.29,168.95c-5.92,3.48-11.35,1.88-14.22-.9s-2.43-7.91,1.18-10.78a12.35,12.35,0,0,1,13.18-.88c4.06,2.51,4.74,6.94,1.54,11A45.33,45.33,0,0,0,66.17,173a29.21,29.21,0,0,0,26.73-16.48,47.22,47.22,0,0,0,4.29-22.87c-0.58-13.69-5.38-26.18-13.11-37.9-2.07-3.14-4.46-6.14-6.51-9.36,1,1,2,1.87,2.9,2.87a87.38,87.38,0,0,1,16.43,26.06,66.88,66.88,0,0,1,5.06,24.4c0,8-1.22,15.84-5.64,23.36A26.92,26.92,0,0,1,81,175.71a34.41,34.41,0,0,1-22.82-.31C53.1,173.56,48.37,171.18,43.29,168.95Z" transform="translate(1.54 -60)" style="fill:#0072bc;fill-rule:evenodd"/><path d="M71.59,82.59c2.58,3.16,5.18,6.09,7.49,9.19a76.09,76.09,0,0,1,10,18.06c5,13.08,7.42,26.44,3.07,40.32-2,6.33-5.56,11.93-12.37,15.45-5.09,2.63-10.42,2.92-15.92,2,4.18,0,8.27-.13,12.25-1.82A23.79,23.79,0,0,0,87.8,155c4-7.2,5-14.85,4.64-22.68-0.9-18.37-8.16-34.42-20.71-48.6a5.57,5.57,0,0,1-.46-0.62A2.52,2.52,0,0,1,71.59,82.59Z" transform="translate(1.54 -60)" style="fill:#0072bc;fill-rule:evenodd"/></g><path d="M32.87,163.5c-2.94-3.4-5.9-6.57-8.52-9.92A79.67,79.67,0,0,1,13,134.06C7.37,119.9,4.74,105.41,9.87,90.3c2.34-6.89,6.49-13,14.35-16.89,5.87-2.9,12-3.27,18.31-2.34-4.8,0-9.51.22-14.09,2.09A27.42,27.42,0,0,0,14.88,85C10.2,92.82,9,101.14,9.35,109.64c0.87,19.93,9.07,37.31,23.37,52.59a6.38,6.38,0,0,1,.53.67A2.9,2.9,0,0,1,32.87,163.5Z" transform="translate(1.54 -60)" style="fill:#009688;fill-rule:evenodd"/><path d="M66.16,69.47c6.83-3.83,13.06-2.14,16.34.86C85.94,73.48,85.21,78.89,81,82S70.16,85.59,65.9,83.12c-4.64-2.69-5.38-7.5-1.67-11.91a53.86,53.86,0,0,0-24.34-6A34.4,34.4,0,0,0,9,83.36a49.27,49.27,0,0,0-5.14,24.88c0.54,14.86,5.95,28.38,14.73,41,2.36,3.39,5.08,6.63,7.4,10.11-1.11-1-2.29-2-3.31-3.09A92.35,92.35,0,0,1,4.05,128.14a68.61,68.61,0,0,1-5.59-26.45C-1.52,93,0,84.48,5.14,76.27A31.27,31.27,0,0,1,22.9,62.47a41.69,41.69,0,0,1,26.22.13C54.93,64.55,60.34,67.09,66.16,69.47Z" transform="translate(1.54 -60)" style="fill:#009688;fill-rule:evenodd"/><g style="clip-path:url(#i)"><path d="M38.15,167.18c-6.28,3.09-12,1.74-15-.66-3.17-2.52-2.5-6.86,1.33-9.4s10-2.87,13.93-.89c4.26,2.15,4.95,6,1.53,9.55a55.29,55.29,0,0,0,22.37,4.75c14.14,0,24.17-7.39,28.38-14.61a35.39,35.39,0,0,0,4.73-20c-0.5-11.92-5.47-22.76-13.53-32.9-2.17-2.72-4.67-5.31-6.8-8.09,1,0.82,2.1,1.61,3,2.47A73.85,73.85,0,0,1,95.24,120a49,49,0,0,1,5.14,21.21c0,7-1.42,13.81-6.15,20.41a28.53,28.53,0,0,1-16.33,11.11,43.64,43.64,0,0,1-24.1-.05C48.47,171.11,43.5,169.07,38.15,167.18Z" transform="translate(1.54 -60)" style="fill:#009688;fill-rule:evenodd"/><path d="M68.1,91.76C71,94.45,74,97,76.57,99.61a60.23,60.23,0,0,1,11.17,15.54c5.55,11.3,8,22.91,2.72,35.13-2.43,5.57-6.67,10.54-14.62,13.78-5.93,2.41-12.11,2.79-18.45,2.14,4.83-.07,9.57-0.31,14.2-1.87a27.61,27.61,0,0,0,13.77-9.69c4.79-6.37,6.11-13.08,5.83-19.9-0.67-16-8.74-29.86-23-41.95a4.74,4.74,0,0,1-.52-0.53A2.3,2.3,0,0,1,68.1,91.76Z" transform="translate(1.54 -60)" style="fill:#009688;fill-rule:evenodd"/></g></g><g style="clip-path:url(#j)"><path d="M52.08,168.53c-5.92,3.48-11.35,1.88-14.22-.9s-2.43-7.91,1.18-10.78A12.35,12.35,0,0,1,52.2,156c4.06,2.51,4.74,6.94,1.54,11A45.33,45.33,0,0,0,75,172.63a29.21,29.21,0,0,0,26.73-16.48A47.22,47.22,0,0,0,106,133.28c-0.58-13.69-5.38-26.18-13.11-37.9-2.07-3.14-4.46-6.14-6.51-9.36,1,1,2,1.87,2.9,2.87a87.38,87.38,0,0,1,16.43,26.06,66.88,66.88,0,0,1,5.06,24.4c0,8-1.22,15.84-5.64,23.36a26.92,26.92,0,0,1-15.36,12.59A34.41,34.41,0,0,1,67,175C61.88,173.15,57.16,170.76,52.08,168.53Z" transform="translate(1.54 -60)" style="fill:#009688;fill-rule:evenodd"/><path d="M80.38,82.17c2.58,3.16,5.18,6.09,7.49,9.19a76.08,76.08,0,0,1,10,18.06c5,13.08,7.42,26.44,3.07,40.32-2,6.33-5.56,11.93-12.37,15.45-5.09,2.63-10.42,2.92-15.92,2,4.18,0,8.27-.13,12.25-1.82a23.8,23.8,0,0,0,11.72-10.78c4-7.2,5-14.85,4.64-22.68-0.9-18.37-8.16-34.42-20.71-48.6a5.57,5.57,0,0,1-.46-0.62A2.52,2.52,0,0,1,80.38,82.17Z" transform="translate(1.54 -60)" style="fill:#009688;fill-rule:evenodd"/><path d="M41.66,163.08c-2.94-3.4-5.9-6.57-8.52-9.92a79.68,79.68,0,0,1-11.31-19.53c-5.67-14.16-8.29-28.65-3.16-43.76C21,83,25.15,76.88,33,73c5.87-2.9,12-3.27,18.31-2.34-4.8,0-9.51.22-14.09,2.09A27.42,27.42,0,0,0,23.67,84.56c-4.68,7.85-5.9,16.17-5.53,24.67,0.87,19.93,9.07,37.31,23.37,52.59a6.39,6.39,0,0,1,.53.67A2.9,2.9,0,0,1,41.66,163.08Z" transform="translate(1.54 -60)" style="fill:#009688;fill-rule:evenodd"/><path d="M74.95,69.06c6.83-3.83,13.06-2.14,16.34.86,3.45,3.15,2.72,8.56-1.45,11.71S78.95,85.17,74.69,82.7C70,80,69.3,75.2,73,70.79a53.86,53.86,0,0,0-24.34-6A34.4,34.4,0,0,0,17.82,82.94a49.27,49.27,0,0,0-5.14,24.88c0.54,14.86,5.95,28.38,14.73,41,2.36,3.39,5.08,6.63,7.4,10.11-1.11-1-2.29-2-3.31-3.09a92.34,92.34,0,0,1-18.65-28.15,68.61,68.61,0,0,1-5.59-26.45c0-8.71,1.54-17.21,6.69-25.42A31.27,31.27,0,0,1,31.69,62a41.69,41.69,0,0,1,26.22.13C63.71,64.13,69.12,66.68,74.95,69.06Z" transform="translate(1.54 -60)" style="fill:#009688;fill-rule:evenodd"/></g></svg>